<svg width="544" height="413" viewBox="0 0 544 413" fill="none" xmlns="http://www.w3.org/2000/svg">
<g clip-path="url(#clip0_11_15)">
<rect width="544" height="413" fill="#DEFFFA"/>
<g filter="url(#filter0_d_11_15)">
<circle opacity="0.1" cx="272" cy="206" r="199" fill="url(#paint0_linear_11_15)"/>
<circle opacity="0.1" cx="268" cy="203" r="175" fill="url(#paint1_linear_11_15)"/>
</g>
<g clip-path="url(#clip1_11_15)" filter="url(#filter1_d_11_15)">
<path d="M343.376 373.156H238.106C222.317 373.156 209.471 360.364 209.471 344.641V67.5155C209.471 51.7921 222.317 39.0001 238.106 39.0001H343.376C359.165 39.0001 372.01 51.7921 372.01 67.5155C373.97 178.8 377.311 303.422 372.01 344.641C372.01 360.364 359.165 373.156 343.376 373.156L343.376 373.156V373.156Z" fill="#FF7B00"/>
<path d="M373.478 140.936C372.81 140.936 372.267 141.477 372.267 142.142V180.745C372.267 181.41 372.81 181.951 373.478 181.951C374.146 181.951 374.69 181.41 374.69 180.745V142.142C374.69 141.477 374.146 140.936 373.478 140.936Z" fill="#FF7B00"/>
<path d="M369.285 67.5157V344.636C369.285 358.322 358.588 369.517 345.063 370.385H345.057C344.857 370.397 344.657 370.409 344.451 370.415C344.094 370.433 343.737 370.44 343.373 370.44C343.373 370.44 342.041 370.343 339.606 370.162C337.147 369.981 333.567 369.71 329.103 369.354C327.765 369.251 326.353 369.137 324.863 369.016C321.895 368.775 318.637 368.509 315.142 368.208C313.749 368.093 312.307 367.967 310.835 367.84C303.313 367.194 294.887 366.441 286.002 365.584C284.5 365.445 282.986 365.301 281.459 365.15C281.059 365.107 212.197 347.869 212.197 344.636V67.5157C212.197 53.2628 223.796 41.7121 238.109 41.7121H253.578C256.049 41.7121 258.036 43.6302 258.248 46.0851C258.266 46.2479 258.284 46.4108 258.315 46.5736C258.763 49.0406 261.034 50.7596 263.554 50.7596H317.928C320.448 50.7596 322.719 49.0406 323.167 46.5736C323.198 46.4108 323.216 46.2479 323.234 46.0851C323.446 43.6302 325.433 41.7121 327.904 41.7121H343.373C357.686 41.7121 369.285 53.2628 369.285 67.5157H369.285Z" fill="white"/>
<path d="M208.866 111.984C208.197 111.984 207.654 112.525 207.654 113.19V122.841C207.654 123.506 208.197 124.047 208.866 124.047C209.534 124.047 210.077 123.506 210.077 122.841V113.19C210.077 112.525 209.534 111.984 208.866 111.984V111.984Z" fill="#FF7B00"/>
<path d="M208.866 140.936C208.197 140.936 207.654 141.477 207.654 142.142V160.84C207.654 161.506 208.197 162.047 208.866 162.047C209.534 162.047 210.077 161.506 210.077 160.84V142.142C210.077 141.477 209.534 140.936 208.866 140.936V140.936Z" fill="#FF7B00"/>
<path d="M208.866 167.475C208.197 167.475 207.654 168.016 207.654 168.682V187.38C207.654 188.045 208.197 188.586 208.866 188.586C209.534 188.586 210.077 188.045 210.077 187.38V168.682C210.077 168.016 209.534 167.475 208.866 167.475Z" fill="#FF7B00"/>
<path d="M253.18 45.9366H229.966C229.853 45.9366 229.762 46.0274 229.762 46.1395V48.7496C229.762 48.8617 229.853 48.9525 229.966 48.9525H253.18C253.293 48.9525 253.384 48.8617 253.384 48.7496V46.1395C253.384 46.0274 253.293 45.9366 253.18 45.9366Z" fill="#E6E6E6"/>
<path d="M331.732 48.9525C333.07 48.9525 334.154 47.8723 334.154 46.5398C334.154 45.2073 333.07 44.1271 331.732 44.1271C330.394 44.1271 329.309 45.2073 329.309 46.5398C329.309 47.8723 330.394 48.9525 331.732 48.9525Z" fill="#E6E6E6"/>
<path d="M338.394 48.9525C339.732 48.9525 340.817 47.8723 340.817 46.5398C340.817 45.2073 339.732 44.1271 338.394 44.1271C337.056 44.1271 335.971 45.2073 335.971 46.5398C335.971 47.8723 337.056 48.9525 338.394 48.9525Z" fill="#E6E6E6"/>
<path d="M345.057 48.9525C346.395 48.9525 347.48 47.8723 347.48 46.5398C347.48 45.2073 346.395 44.1271 345.057 44.1271C343.719 44.1271 342.634 45.2073 342.634 46.5398C342.634 47.8723 343.719 48.9525 345.057 48.9525Z" fill="#E6E6E6"/>
<path d="M211.195 368.111L203.812 368.11L200.3 339.75L211.197 339.751L211.195 368.111Z" fill="#FFB6B6"/>
<path d="M185.899 367.944C185.67 368.33 185.548 369.574 185.548 370.023C185.548 371.401 186.67 372.518 188.054 372.518H210.919C211.863 372.518 212.629 371.756 212.629 370.816V369.868C212.629 369.868 213.76 367.018 211.431 363.507C211.431 363.507 208.537 366.256 204.212 361.95L202.937 359.649L193.705 366.372L188.587 367C187.468 367.137 186.475 366.978 185.9 367.944H185.899V367.944H185.899Z" fill="#2F2E41"/>
<path d="M170.365 328.72L162.982 328.696L159.56 300.325L170.457 300.36L170.365 328.72Z" fill="#FFB6B6"/>
<path d="M145.069 328.473C144.838 328.858 144.713 330.102 144.712 330.551C144.707 331.929 145.826 333.05 147.21 333.054L170.075 333.126C171.019 333.129 171.787 332.37 171.79 331.429L171.793 330.481C171.793 330.481 172.933 327.636 170.615 324.117C170.615 324.117 167.712 326.857 163.401 322.537L162.133 320.232L152.88 326.926L147.761 327.537C146.641 327.671 145.649 327.509 145.07 328.473H145.069V328.473Z" fill="#2F2E41"/>
<path d="M200.427 195.941L191.234 196.594C191.234 196.594 160.111 214.216 157.485 218.139C154.858 222.063 151.246 227.621 154.53 233.506C157.813 239.392 155.314 310.651 155.314 310.651L171.003 307.117L181.056 232.56L202.069 229.617C202.069 229.617 209.292 245.136 206.665 257.975C204.039 270.814 202.725 278.661 202.725 278.661L199.442 354.516L212.247 354.189L223.738 283.893L243.438 228.309L217.828 198.229L200.427 195.941Z" fill="#2F2E41"/>
<path d="M245.736 115.509L226.693 117.47L224.723 124.009L206.337 133.818L212.247 175.015L207.65 182.208L209.62 189.401C209.62 189.401 204.367 190.055 205.024 193.979L193.204 195.941C193.204 195.941 208.881 199.128 212.205 214.863C215.53 230.598 243.11 232.56 243.11 232.56L264.779 165.206L266.749 125.317L251.646 121.394L245.736 115.509Z" fill="#E6E6E6"/>
<path d="M235.7 113.027C243.876 113.027 250.504 106.427 250.504 98.2853C250.504 90.1435 243.876 83.5434 235.7 83.5434C227.524 83.5434 220.897 90.1435 220.897 98.2853C220.897 106.427 227.524 113.027 235.7 113.027Z" fill="#FFB6B6"/>
<path d="M228.007 111.585C228.007 111.585 214.873 110.931 216.187 100.468C212.936 89.3268 215.813 82.0927 226.037 79.543C226.037 79.543 228.663 78.8891 229.32 78.8891C237.957 78.8891 242.453 81.5048 242.453 81.5048C242.453 81.5048 241.796 78.9149 242.453 79.5559C243.11 80.197 243.766 81.5048 243.766 81.5048C243.766 81.5048 250.333 84.7744 250.333 91.3136C250.333 97.8528 250.333 95.2371 250.333 95.2371C250.333 95.2371 249.019 95.2371 247.706 91.3136C246.393 87.3901 237.89 90.0057 237.89 90.0057L238.513 91.3136L236.543 90.6597L234.573 92.6214L233.26 91.9675C233.26 91.9675 228.007 91.9675 228.663 91.9675C229.32 91.9675 228.862 96.4115 228.862 96.4115L224.067 101.776L229.32 111.585H228.007Z" fill="#2F2E41"/>
<path d="M158.037 189.633C154.298 191.665 152.32 195.232 153.619 197.602C154.917 199.971 159.001 200.244 162.739 198.212C164.376 197.323 165.675 196.139 166.509 194.891L182.242 186.083L177.935 178.819L162.882 188.272C161.376 188.296 159.674 188.743 158.037 189.633H158.037Z" fill="#FFB6B6"/>
<path d="M211.094 134.123C211.094 134.123 204.926 131.785 202.801 134.6C200.676 137.415 186.639 171.569 186.639 171.569L166.044 182.28L171.835 192.324L198.356 183.531L215.854 151.663L211.094 134.123V134.123Z" fill="#E6E6E6"/>
<path d="M405.576 246.291V315.606C405.576 321.736 400.568 326.723 394.413 326.723H222.369C216.214 326.723 211.206 321.736 211.206 315.606V246.291C211.206 240.161 216.214 235.174 222.369 235.174H394.413C400.568 235.174 405.576 240.161 405.576 246.291Z" fill="white"/>
<path d="M405.576 246.291V315.606C405.576 321.736 400.568 326.723 394.413 326.723H222.369C216.214 326.723 211.206 321.736 211.206 315.606V246.291C211.206 240.161 216.214 235.174 222.369 235.174H394.413C400.568 235.174 405.576 240.161 405.576 246.291ZM394.413 325.415C399.853 325.415 404.263 321.023 404.263 315.606V280.66C404.263 256.261 384.401 236.482 359.9 236.482H222.369C216.929 236.482 212.519 240.874 212.519 246.291V315.606C212.519 321.023 216.929 325.415 222.369 325.415H394.413Z" fill="#FF7B00"/>
<path d="M288.435 277.052H265.964C265.398 277.052 264.937 277.511 264.937 278.075C264.937 278.639 265.398 279.098 265.964 279.098H288.435C289.002 279.098 289.463 278.639 289.463 278.075C289.463 277.511 289.002 277.052 288.435 277.052Z" fill="black"/>
<path d="M322.582 277.052H300.11C299.544 277.052 299.083 277.511 299.083 278.075C299.083 278.639 299.544 279.098 300.11 279.098H322.582C323.148 279.098 323.609 278.639 323.609 278.075C323.609 277.511 323.148 277.052 322.582 277.052Z" fill="black"/>
<path d="M288.435 288.238H265.964C265.398 288.238 264.937 288.697 264.937 289.261C264.937 289.825 265.398 290.284 265.964 290.284H288.435C289.002 290.284 289.463 289.825 289.463 289.261C289.463 288.697 289.002 288.238 288.435 288.238Z" fill="black"/>
<path d="M322.582 288.238H300.11C299.544 288.238 299.083 288.697 299.083 289.261C299.083 289.825 299.544 290.284 300.11 290.284H322.582C323.148 290.284 323.609 289.825 323.609 289.261C323.609 288.697 323.148 288.238 322.582 288.238Z" fill="black"/>
<path d="M357.755 289.261C357.755 288.697 357.294 288.238 356.728 288.238H334.256C333.69 288.238 333.229 288.697 333.229 289.261C333.229 289.825 333.69 290.284 334.256 290.284H356.728C357.294 290.284 357.755 289.825 357.755 289.261Z" fill="black"/>
<path d="M275.302 268.12C275.869 268.12 276.33 267.661 276.33 267.097C276.33 266.533 275.869 266.074 275.302 266.074H252.831C252.265 266.074 251.804 266.533 251.804 267.097C251.804 267.661 252.265 268.12 252.831 268.12H275.302Z" fill="black"/>
<path d="M341.48 267.704H363.951C364.517 267.704 364.978 267.245 364.978 266.681C364.978 266.117 364.517 265.658 363.951 265.658H341.48C340.913 265.658 340.452 266.117 340.452 266.681C340.452 267.245 340.913 267.704 341.48 267.704Z" fill="black"/>
<path d="M284.769 267.92H331.356C331.923 267.92 332.384 267.461 332.384 266.896C332.384 266.332 331.923 265.873 331.356 265.873H284.769C284.202 265.873 283.741 266.332 283.741 266.896C283.741 267.461 284.202 267.92 284.769 267.92Z" fill="black"/>
<path d="M303.099 298.401H280.628C280.061 298.401 279.6 298.86 279.6 299.424C279.6 299.988 280.061 300.447 280.628 300.447H303.099C303.665 300.447 304.126 299.988 304.126 299.424C304.126 298.86 303.665 298.401 303.099 298.401Z" fill="black"/>
<path d="M375.673 245.768V315.084C375.673 321.214 370.665 326.2 364.51 326.2H294.904C288.749 326.2 283.741 321.214 283.741 315.084V245.768C283.741 239.638 288.749 234.652 294.904 234.652H364.51C370.665 234.652 375.673 239.638 375.673 245.768Z" fill="white"/>
<path d="M375.673 245.768V315.084C375.673 321.214 370.665 326.2 364.51 326.2H294.904C288.749 326.2 283.741 321.214 283.741 315.084V245.768C283.741 239.638 288.749 234.652 294.904 234.652H364.51C370.665 234.652 375.673 239.638 375.673 245.768ZM360.192 324.892C368.017 324.892 374.36 318.576 374.36 310.784V280.138C374.36 255.739 354.498 235.96 329.997 235.96H294.904C289.465 235.96 285.055 240.351 285.055 245.768V305.413C285.055 316.171 293.813 324.892 304.616 324.892H360.192V324.892H360.192V324.892Z" fill="#FF7B00"/>
<path d="M338.973 262.961H316.502C315.935 262.961 315.474 262.502 315.474 261.938C315.474 261.374 315.935 260.915 316.502 260.915H338.973C339.539 260.915 340 261.374 340 261.938C340 262.502 339.539 262.961 338.973 262.961V262.961Z" fill="black"/>
<path d="M338.973 284.778H316.502C315.935 284.778 315.474 284.319 315.474 283.755C315.474 283.191 315.935 282.732 316.502 282.732H338.973C339.539 282.732 340 283.191 340 283.755C340 284.319 339.539 284.778 338.973 284.778V284.778Z" fill="black"/>
<path d="M327.81 314.859H305.339C304.772 314.859 304.311 314.4 304.311 313.835C304.311 313.271 304.772 312.812 305.339 312.812H327.81C328.376 312.812 328.837 313.271 328.837 313.835C328.837 314.4 328.376 314.859 327.81 314.859V314.859Z" fill="black"/>
<path d="M351.031 273.877H304.444C303.877 273.877 303.416 273.418 303.416 272.854C303.416 272.29 303.877 271.831 304.444 271.831H351.031C351.598 271.831 352.058 272.29 352.058 272.854C352.058 273.418 351.598 273.877 351.031 273.877V273.877V273.877Z" fill="black"/>
<path d="M362.576 207.359C362.576 185.736 344.224 173.841 323.26 168.207C296.383 160.983 276.698 175.6 283.944 207.359C285.586 214.557 289.514 222.964 294.376 230.155H332.957C345.844 221.799 362.576 224.143 362.576 207.359H362.576Z" fill="#FF7B00"/>
<path d="M322.683 248.235C324.878 244.069 327.66 241.063 330.726 238.775H294.59C303.89 252.005 316.224 260.496 322.683 248.235Z" fill="#FF7B00"/>
<path d="M318.513 184.211C320.833 184.211 322.714 186.083 322.714 188.394V196.76H314.313V188.394C314.313 186.083 316.193 184.211 318.513 184.211V184.211ZM324.814 196.76V188.394C324.814 184.928 321.993 182.119 318.513 182.119C315.033 182.119 312.212 184.928 312.212 188.394V196.76C309.893 196.76 308.012 198.632 308.012 200.943V211.4C308.012 213.71 309.893 215.583 312.212 215.583H324.814C327.134 215.583 329.014 213.71 329.014 211.4V200.943C329.014 198.632 327.134 196.76 324.814 196.76H324.814ZM312.212 198.851H324.814C325.974 198.851 326.914 199.787 326.914 200.943V211.4C326.914 212.555 325.974 213.491 324.814 213.491H312.212C311.052 213.491 310.112 212.555 310.112 211.4V200.943C310.112 199.787 311.052 198.851 312.212 198.851V198.851Z" fill="white"/>
<path d="M258.486 232.915C257.979 237.127 259.75 240.801 262.442 241.122C265.133 241.443 267.725 238.289 268.231 234.078C268.453 232.234 268.238 230.494 267.701 229.092L269.622 211.221L261.181 210.502L260.183 228.196C259.329 229.431 258.708 231.072 258.486 232.915V232.915Z" fill="#FFB6B6"/>
<path d="M260.511 126.298C260.511 126.298 269.704 123.683 271.674 127.606C273.644 131.53 278.241 183.189 278.241 183.189L269.376 224.425L259.198 221.77L264.451 179.92L257.228 148.531L260.511 126.298Z" fill="#E6E6E6"/>
<path d="M125.414 251.746C146.63 251.746 163.829 234.619 163.829 213.492C163.829 192.364 146.63 175.237 125.414 175.237C104.199 175.237 87 192.364 87 213.492C87 234.619 104.199 251.746 125.414 251.746Z" fill="#FF7B00"/>
<path d="M125.414 196.366C128.128 196.366 130.328 198.557 130.328 201.259V211.045H120.501V201.259C120.501 198.557 122.701 196.366 125.414 196.366V196.366ZM132.785 211.045V201.259C132.785 197.206 129.485 193.92 125.414 193.92C121.344 193.92 118.044 197.206 118.044 201.259V211.045C115.331 211.045 113.131 213.236 113.131 215.938V228.17C113.131 230.873 115.331 233.063 118.044 233.063H132.785C135.498 233.063 137.698 230.873 137.698 228.17V215.938C137.698 213.236 135.498 211.045 132.785 211.045H132.785V211.045ZM118.044 213.491H132.785C134.141 213.491 135.241 214.587 135.241 215.938V228.17C135.241 229.522 134.141 230.617 132.785 230.617H118.044C116.687 230.617 115.587 229.522 115.587 228.17V215.938C115.587 214.587 116.687 213.491 118.044 213.491V213.491Z" fill="white"/>
</g>
</g>
<defs>
<filter id="filter0_d_11_15" x="67" y="5" width="410" height="410" filterUnits="userSpaceOnUse" color-interpolation-filters="sRGB">
<feFlood flood-opacity="0" result="BackgroundImageFix"/>
<feColorMatrix in="SourceAlpha" type="matrix" values="0 0 0 0 0 0 0 0 0 0 0 0 0 0 0 0 0 0 127 0" result="hardAlpha"/>
<feOffset dy="4"/>
<feGaussianBlur stdDeviation="3"/>
<feComposite in2="hardAlpha" operator="out"/>
<feColorMatrix type="matrix" values="0 0 0 0 0 0 0 0 0 0 0 0 0 0 0 0 0 0 0.05 0"/>
<feBlend mode="normal" in2="BackgroundImageFix" result="effect1_dropShadow_11_15"/>
<feBlend mode="normal" in="SourceGraphic" in2="effect1_dropShadow_11_15" result="shape"/>
</filter>
<filter id="filter1_d_11_15" x="81" y="37.0001" width="383" height="347" filterUnits="userSpaceOnUse" color-interpolation-filters="sRGB">
<feFlood flood-opacity="0" result="BackgroundImageFix"/>
<feColorMatrix in="SourceAlpha" type="matrix" values="0 0 0 0 0 0 0 0 0 0 0 0 0 0 0 0 0 0 127 0" result="hardAlpha"/>
<feOffset dy="4"/>
<feGaussianBlur stdDeviation="3"/>
<feComposite in2="hardAlpha" operator="out"/>
<feColorMatrix type="matrix" values="0 0 0 0 0 0 0 0 0 0 0 0 0 0 0 0 0 0 0.05 0"/>
<feBlend mode="normal" in2="BackgroundImageFix" result="effect1_dropShadow_11_15"/>
<feBlend mode="normal" in="SourceGraphic" in2="effect1_dropShadow_11_15" result="shape"/>
</filter>
<linearGradient id="paint0_linear_11_15" x1="272" y1="7" x2="272" y2="405" gradientUnits="userSpaceOnUse">
<stop stop-color="#FF7B00"/>
<stop offset="1" stop-color="#FF7B00" stop-opacity="0"/>
</linearGradient>
<linearGradient id="paint1_linear_11_15" x1="268" y1="28" x2="268" y2="378" gradientUnits="userSpaceOnUse">
<stop stop-color="#FF7B00"/>
<stop offset="1" stop-color="#FF7B00" stop-opacity="0"/>
</linearGradient>
<clipPath id="clip0_11_15">
<rect width="544" height="413" fill="white"/>
</clipPath>
<clipPath id="clip1_11_15">
<rect width="371" height="335" fill="white" transform="translate(87 39.0001)"/>
</clipPath>
</defs>
</svg>
