<svg width="48" height="48" viewBox="0 0 48 48" fill="none" xmlns="http://www.w3.org/2000/svg">
<path d="M24 48C37.2548 48 48 37.2548 48 24C48 10.7452 37.2548 0 24 0C10.7452 0 0 10.7452 0 24C0 37.2548 10.7452 48 24 48Z" fill="url(#paint0_linear_11_5)"/>
<path d="M38.7273 23.7273C38.7273 32.0115 32.0115 38.7273 23.7273 38.7273C15.443 38.7273 8.72726 32.0115 8.72726 23.7273C8.72726 15.443 15.443 8.72726 23.7273 8.72726C32.0115 8.72726 38.7273 15.443 38.7273 23.7273Z" fill="white"/>
<path d="M22.3825 15.4626C23.4664 14.3787 25.2237 14.3787 26.3076 15.4626L26.36 15.5149C27.4439 16.5988 27.4439 18.3562 26.36 19.4401L22.065 23.735C20.9811 24.8189 19.2237 24.8189 18.1398 23.735L18.0875 23.6827C17.0036 22.5988 17.0036 20.8414 18.0875 19.7575L22.3825 15.4626Z" fill="#FF7B00"/>
<path d="M16.3636 22.3712C16.3636 20.8608 17.6891 19.6364 19.3242 19.6364H19.4031C21.0382 19.6364 22.3636 20.8608 22.3636 22.3712V28.3561C22.3636 29.8665 21.0382 31.0909 19.4031 31.0909H19.3242C17.6891 31.0909 16.3636 29.8665 16.3636 28.3561V22.3712Z" fill="#FF7B00"/>
<path d="M31.6364 28.3636C31.6364 29.8699 30.2933 31.0909 28.6364 31.0909C26.9796 31.0909 25.6364 29.8699 25.6364 28.3636C25.6364 26.8574 26.9796 25.6364 28.6364 25.6364C30.2933 25.6364 31.6364 26.8574 31.6364 28.3636Z" fill="#FF7B00"/>
<defs>
<linearGradient id="paint0_linear_11_5" x1="24" y1="0" x2="24" y2="48" gradientUnits="userSpaceOnUse">
<stop stop-color="#FF7B00"/>
<stop offset="0.488471" stop-color="#FF7B00"/>
<stop offset="1" stop-color="#FF7B00"/>
</linearGradient>
</defs>
</svg>
